<svg width="26" height="26" viewBox="0 0 26 26" fill="none" xmlns="http://www.w3.org/2000/svg">
<path d="M3.24997 14.0834H4.33331V21.6667C4.33331 22.8616 5.30506 23.8334 6.49997 23.8334H19.5C20.6949 23.8334 21.6666 22.8616 21.6666 21.6667V14.0834H22.75C22.9642 14.0833 23.1736 14.0198 23.3517 13.9007C23.5298 13.7817 23.6686 13.6125 23.7506 13.4146C23.8326 13.2166 23.8541 12.9989 23.8123 12.7887C23.7705 12.5786 23.6674 12.3856 23.5159 12.2341L13.7659 2.48411C13.6654 2.38342 13.546 2.30353 13.4146 2.24903C13.2831 2.19453 13.1423 2.16647 13 2.16647C12.8577 2.16647 12.7168 2.19453 12.5854 2.24903C12.454 2.30353 12.3346 2.38342 12.2341 2.48411L2.48406 12.2341C2.3326 12.3856 2.22946 12.5786 2.18767 12.7887C2.14589 12.9989 2.16735 13.2166 2.24932 13.4146C2.3313 13.6125 2.47012 13.7817 2.64823 13.9007C2.82634 14.0198 3.03574 14.0833 3.24997 14.0834ZM13 4.78186L19.5 11.2819V16.25L19.5011 21.6667H6.49997V11.2819L13 4.78186Z" fill="#496EE3"/>
<path d="M5.41669 12.4583V21.6667L6.50002 22.75H19.5L20.5834 21.6667V10.8333L13 3.25L5.41669 10.8333V12.4583Z" fill="#496EE3"/>
<path d="M13 19.5C17.0116 19.5 18.3094 15.6661 18.3625 15.5036L16.3042 14.8308C16.2955 14.8558 15.4581 17.3333 13 17.3333C10.5755 17.3333 9.72835 14.9273 9.69476 14.8243L7.63751 15.5036C7.6906 15.6661 8.98843 19.5 13 19.5Z" fill="white"/>
</svg>
