<svg width="20" height="20" viewBox="0 0 20 20" fill="none" xmlns="http://www.w3.org/2000/svg">
<path d="M10 10C11.2929 10 12.5329 9.48639 13.4471 8.57215C14.3614 7.65791 14.875 6.41793 14.875 5.125C14.875 3.83207 14.3614 2.59209 13.4471 1.67785C12.5329 0.763615 11.2929 0.25 10 0.25C8.70707 0.25 7.46709 0.763615 6.55285 1.67785C5.63861 2.59209 5.125 3.83207 5.125 5.125C5.125 6.41793 5.63861 7.65791 6.55285 8.57215C7.46709 9.48639 8.70707 10 10 10ZM13.25 5.125C13.25 5.98695 12.9076 6.8136 12.2981 7.4231C11.6886 8.03259 10.862 8.375 10 8.375C9.13805 8.375 8.3114 8.03259 7.7019 7.4231C7.09241 6.8136 6.75 5.98695 6.75 5.125C6.75 4.26305 7.09241 3.4364 7.7019 2.8269C8.3114 2.21741 9.13805 1.875 10 1.875C10.862 1.875 11.6886 2.21741 12.2981 2.8269C12.9076 3.4364 13.25 4.26305 13.25 5.125ZM19.75 18.125C19.75 19.75 18.125 19.75 18.125 19.75H1.875C1.875 19.75 0.25 19.75 0.25 18.125C0.25 16.5 1.875 11.625 10 11.625C18.125 11.625 19.75 16.5 19.75 18.125ZM18.125 18.1185C18.1234 17.7188 17.8748 16.5162 16.773 15.4145C15.7135 14.355 13.7196 13.25 10 13.25C6.27875 13.25 4.2865 14.355 3.227 15.4145C2.12525 16.5162 1.87825 17.7188 1.875 18.1185H18.125Z" fill="black" stroke="black" stroke-width="0.3"/>
</svg>
