<svg width="24" height="24" viewBox="0 0 24 24" fill="none" xmlns="http://www.w3.org/2000/svg">
<path d="M11.1875 7.9375C11.1875 7.72201 11.2731 7.51535 11.4255 7.36298C11.5778 7.2106 11.7845 7.125 12 7.125C12.2155 7.125 12.4222 7.2106 12.5745 7.36298C12.7269 7.51535 12.8125 7.72201 12.8125 7.9375V11.1875H16.0625C16.278 11.1875 16.4847 11.2731 16.637 11.4255C16.7894 11.5778 16.875 11.7845 16.875 12C16.875 12.2155 16.7894 12.4222 16.637 12.5745C16.4847 12.7269 16.278 12.8125 16.0625 12.8125H12.8125V16.0625C12.8125 16.278 12.7269 16.4847 12.5745 16.637C12.4222 16.7894 12.2155 16.875 12 16.875C11.7845 16.875 11.5778 16.7894 11.4255 16.637C11.2731 16.4847 11.1875 16.278 11.1875 16.0625V12.8125H7.9375C7.72201 12.8125 7.51535 12.7269 7.36298 12.5745C7.2106 12.4222 7.125 12.2155 7.125 12C7.125 11.7845 7.2106 11.5778 7.36298 11.4255C7.51535 11.2731 7.72201 11.1875 7.9375 11.1875H11.1875V7.9375ZM23.375 12C23.375 18.2822 18.2822 23.375 12 23.375C5.71775 23.375 0.625 18.2822 0.625 12C0.625 5.71775 5.71775 0.625 12 0.625C18.2822 0.625 23.375 5.71775 23.375 12ZM21.75 12C21.75 6.61556 17.3844 2.25 12 2.25C6.61556 2.25 2.25 6.61556 2.25 12C2.25 17.3844 6.61556 21.75 12 21.75C17.3844 21.75 21.75 17.3844 21.75 12Z" fill="black" stroke="black" stroke-width="0.3"/>
</svg>
