<svg width="26" height="26" viewBox="0 0 26 26" fill="none" xmlns="http://www.w3.org/2000/svg">
<path d="M22.8367 7.58333C22.6495 7.259 22.3814 6.98872 22.0587 6.79886C21.7359 6.60899 21.3694 6.50602 20.995 6.49999H7.12835L6.50002 4.05166C6.43654 3.81532 6.2949 3.60743 6.09819 3.46186C5.90147 3.31629 5.66126 3.24162 5.41669 3.24999H3.25002C2.9627 3.24999 2.68715 3.36413 2.48399 3.5673C2.28082 3.77046 2.16669 4.04601 2.16669 4.33333C2.16669 4.62065 2.28082 4.8962 2.48399 5.09936C2.68715 5.30252 2.9627 5.41666 3.25002 5.41666H4.59335L7.58335 16.5317C7.64684 16.768 7.78847 16.9759 7.98519 17.1215C8.1819 17.267 8.42211 17.3417 8.66669 17.3333H18.4167C18.6167 17.3327 18.8127 17.2767 18.9829 17.1716C19.1531 17.0664 19.2908 16.9162 19.3809 16.7375L22.9342 9.63083C23.0882 9.30801 23.1599 8.95209 23.1429 8.59482C23.1259 8.23755 23.0207 7.89005 22.8367 7.58333ZM17.745 15.1667H9.49002L7.72419 8.66666H20.995L17.745 15.1667Z" fill="black"/>
<path d="M8.125 22.75C9.02246 22.75 9.75 22.0225 9.75 21.125C9.75 20.2275 9.02246 19.5 8.125 19.5C7.22754 19.5 6.5 20.2275 6.5 21.125C6.5 22.0225 7.22754 22.75 8.125 22.75Z" fill="black"/>
<path d="M18.9584 22.75C19.8558 22.75 20.5834 22.0225 20.5834 21.125C20.5834 20.2275 19.8558 19.5 18.9584 19.5C18.0609 19.5 17.3334 20.2275 17.3334 21.125C17.3334 22.0225 18.0609 22.75 18.9584 22.75Z" fill="black"/>
</svg>
